HIERARCHY
ROOT Hips
{
	OFFSET 0.000000 88.474243 0.000000
	CHANNELS 6 Xposition Yposition Zposition Zrotation Yrotation Xrotation 
	JOINT Hips_Spine
	{
		OFFSET 0.000000 0.000000 0.000000
		CHANNELS 3 Zrotation Yrotation Xrotation
		JOINT Spine
		{
			OFFSET 0.005100 8.711998 -0.691000
			CHANNELS 3 Zrotation Yrotation Xrotation
			JOINT Spine1
			{
				OFFSET -0.009200 8.660301 -1.275000
				CHANNELS 3 Zrotation Yrotation Xrotation
				JOINT Spine2
				{
					OFFSET 0.006300 9.852501 -1.857000
					CHANNELS 3 Zrotation Yrotation Xrotation
					JOINT Spine2_Neck
					{
						OFFSET 0.000000 0.000000 0.000000
						CHANNELS 3 Zrotation Yrotation Xrotation
						JOINT Neck
						{
							OFFSET 0.016300 11.420799 -0.263300
							CHANNELS 3 Zrotation Yrotation Xrotation
							End Site #name: Head
							{
								OFFSET -0.019200 9.262405 2.362500
							}
						}
					}
					JOINT Spine2_LeftShoulder
					{
						OFFSET 0.000000 0.000000 0.000000
						CHANNELS 3 Zrotation Yrotation Xrotation
						JOINT LeftShoulder
						{
							OFFSET 5.616900 6.732201 -0.345700
							CHANNELS 3 Zrotation Yrotation Xrotation
							JOINT LeftArm
							{
								OFFSET 10.664888 -0.183372 -2.440700
								CHANNELS 3 Zrotation Yrotation Xrotation
								JOINT LeftForeArm
								{
									OFFSET 27.459126 0.000000 0.000000
									CHANNELS 3 Zrotation Yrotation Xrotation
									End Site #name: LeftHand
									{
										OFFSET 21.306858 0.000000 0.000000
									}
								}
							}
						}
					}
					JOINT Spine2_RightShoulder
					{
						OFFSET 0.000000 0.000000 0.000000
						CHANNELS 3 Zrotation Yrotation Xrotation
						JOINT RightShoulder
						{
							OFFSET -5.580300 6.737503 -0.344400
							CHANNELS 3 Zrotation Yrotation Xrotation
							JOINT RightArm
							{
								OFFSET -10.679335 -0.188484 -2.383900
								CHANNELS 3 Zrotation Yrotation Xrotation
								JOINT RightForeArm
								{
									OFFSET -27.503529 0.000000 0.000000
									CHANNELS 3 Zrotation Yrotation Xrotation
									End Site #name: RightHand
									{
										OFFSET -21.306808 0.000000 0.000000
									}
								}
							}
						}
					}
				}
			}
		}
	}
	JOINT Hips_LeftUpLeg
	{
		OFFSET 0.000000 0.000000 0.000000
		CHANNELS 3 Zrotation Yrotation Xrotation
		JOINT LeftUpLeg
		{
			OFFSET 6.857700 -6.739601 0.312100
			CHANNELS 3 Zrotation Yrotation Xrotation
			JOINT LeftLeg
			{
				OFFSET -0.367590 -34.731552 -4.572400
				CHANNELS 3 Zrotation Yrotation Xrotation
				End Site #name: LeftFoot
				{
					OFFSET 0.367590 -34.656704 -6.067400
				}
			}
		}
	}
	JOINT Hips_RightUpLeg
	{
		OFFSET 0.000000 0.000000 0.000000
		CHANNELS 3 Zrotation Yrotation Xrotation
		JOINT RightUpLeg
		{
			OFFSET -6.876100 -6.733299 0.301000
			CHANNELS 3 Zrotation Yrotation Xrotation
			JOINT RightLeg
			{
				OFFSET 0.347353 -34.795158 -4.515900
				CHANNELS 3 Zrotation Yrotation Xrotation
				End Site #name: RightFoot
				{
					OFFSET -0.347353 -34.589367 -6.070300
				}
			}
		}
	}
}
MOTION
Frames: 7
Frame Time: 0.041667
0.171430 0.402670 -1.753480 -0.720643 15.477895 -6.130705 -0.000000 0.000000 0.000000 -0.102728 -1.004822 -4.451958 2.608447 -1.199572 -3.029007 0.000000 0.000000 0.000000 2.859696 -0.821639 -3.005703 3.026218 -2.798110 -0.569554 2.136097 -1.179688 -2.930732 -21.391202 0.221318 6.585095 -50.105021 12.491078 10.566425 -0.810354 -22.991872 4.742905 1.951857 -0.890348 -1.254245 8.446732 6.326131 1.757364 62.944779 -0.479229 -10.997288 0.489259 35.567801 -0.598871 0.000000 0.000000 -0.000000 -3.998669 19.065877 -6.450422 2.549332 7.575871 23.308261 0.000000 0.000000 0.000000 -4.477335 -1.027914 -17.846721 2.582433 -6.777276 13.427151 
-0.113031 0.399913 -1.827852 -1.001451 16.139682 -6.328751 -0.000000 0.000000 0.000000 0.642889 -0.902306 -4.613657 2.807695 -1.209207 -3.012033 0.000000 0.000000 0.000000 3.019659 -0.770354 -2.993768 3.137394 -2.807355 -0.277043 2.337893 -1.152710 -2.871238 -20.824732 0.311792 6.643164 -50.986998 13.222068 9.960263 -0.873101 -23.982773 4.669184 2.141576 -0.849880 -1.276331 8.450244 6.421935 1.785824 62.926492 -0.663500 -10.941223 0.491194 35.782959 -0.602098 0.000000 -0.000000 -0.000000 -3.340913 19.212273 -6.454654 2.365257 7.454230 23.864861 0.000000 -0.000000 0.000000 -3.832261 -0.795419 -18.233049 2.879600 -6.818324 13.948758 
-0.373716 0.396581 -1.878789 -1.262056 16.620210 -6.494859 -0.000000 -0.000000 0.000000 1.328164 -0.786333 -4.748852 2.996536 -1.207527 -2.986912 0.000000 0.000000 0.000000 3.169086 -0.719016 -2.963947 3.245760 -2.817628 0.024499 2.525425 -1.119594 -2.795130 -20.328673 0.342841 6.711434 -51.785684 13.827334 9.313353 -0.921056 -24.716306 4.634671 2.310848 -0.796835 -1.287884 8.484359 6.530272 1.817622 62.908541 -0.829466 -10.878031 0.493344 36.046068 -0.603247 0.000000 -0.000000 -0.000000 -2.714758 19.257745 -6.226460 2.097625 7.204435 24.134886 0.000000 -0.000000 0.000000 -3.208941 -0.500052 -18.628055 3.183299 -6.871036 14.436933 
-0.598282 0.393098 -1.909112 -1.465164 16.903806 -6.615523 -0.000000 -0.000000 0.000000 1.963636 -0.674240 -4.824265 3.173399 -1.198699 -2.940138 0.000000 0.000000 0.000000 3.310656 -0.670791 -2.911316 3.333824 -2.834971 0.359398 2.705505 -1.087387 -2.697060 -19.934301 0.334271 6.764287 -52.489228 14.383394 8.730432 -0.969501 -25.376629 4.608695 2.464695 -0.750007 -1.287503 8.522453 6.627939 1.856919 62.874331 -1.004786 -10.799532 0.496984 36.342019 -0.600919 0.000000 -0.000000 -0.000000 -2.092949 19.205397 -5.680251 1.815349 6.941551 24.068129 0.000000 -0.000000 0.000000 -2.613372 -0.131105 -19.037041 3.484435 -6.917602 14.958706 
-0.774893 0.386235 -1.930968 -1.601212 16.791533 -6.704135 -0.000000 -0.000000 0.000000 2.506297 -0.563551 -4.818523 3.338026 -1.193810 -2.861780 0.000000 0.000000 0.000000 3.442702 -0.628843 -2.837246 3.398963 -2.861964 0.706686 2.873604 -1.056080 -2.576461 -19.585960 0.312024 6.781232 -53.131899 14.843511 8.179991 -1.012798 -25.973140 4.583539 2.609871 -0.705723 -1.271710 8.574408 6.725342 1.903684 62.813255 -1.153471 -10.681678 0.502074 36.696657 -0.596050 0.000000 -0.000000 -0.000000 -1.549090 19.072348 -4.971635 1.427795 6.502691 23.714209 0.000000 -0.000000 0.000000 -2.054625 0.351794 -19.483870 3.768438 -6.965653 15.593916 
-0.895441 0.367884 -1.960350 -1.650667 15.981532 -6.733854 -0.000000 -0.000000 0.000000 2.819760 -0.494225 -4.816578 3.493580 -1.196049 -2.763683 0.000000 0.000000 0.000000 3.561656 -0.594150 -2.749732 3.484984 -2.780838 0.892398 3.029217 -1.033107 -2.441685 -19.289670 0.264626 6.770262 -53.712449 15.200306 7.753096 -1.050226 -26.469438 4.567936 2.737169 -0.673022 -1.238477 8.653121 6.830187 1.951165 62.716814 -1.267763 -10.522747 0.508334 37.108761 -0.589105 0.000000 -0.000000 -0.000000 -1.048913 18.968453 -4.260567 0.976100 6.012997 23.500331 0.000000 -0.000000 0.000000 -1.559634 0.981492 -19.943249 4.022425 -6.993907 16.263437 
-0.953328 0.341809 -1.999966 -1.583554 14.373334 -6.713287 -0.000000 -0.000000 0.000000 3.031500 -0.461927 -4.763677 3.643372 -1.210793 -2.654735 0.000000 0.000000 0.000000 3.673265 -0.569388 -2.644951 3.565906 -2.702352 1.050018 3.175934 -1.021358 -2.303374 -19.057625 0.216768 6.722230 -54.220860 15.428891 7.443000 -1.080541 -26.860636 4.561791 2.856107 -0.654054 -1.196879 8.754873 6.938325 1.992988 62.595849 -1.348210 -10.320094 0.515633 37.572367 -0.580299 0.000000 -0.000000 -0.000000 -0.533794 18.905371 -3.643880 0.559939 5.458034 23.688148 0.000000 -0.000000 0.000000 -1.161569 1.767534 -20.444000 4.276370 -6.949341 17.046172 
